<mxfile host="app.diagrams.net" modified="2022-02-26T23:21:24.289Z" agent="5.0 (Macintosh; Intel Mac OS X 10_15_7) AppleWebKit/537.36 (KHTML, like Gecko) Chrome/96.0.4664.110 YaBrowser/22.1.0.2499 Yowser/2.5 Safari/537.36" etag="wJ481ZlVH_96TyuMTH0x" version="16.6.4" type="github">
  <diagram id="6a731a19-8d31-9384-78a2-239565b7b9f0" name="Page-1">
    <mxGraphModel dx="1429" dy="998" grid="1" gridSize="10" guides="1" tooltips="1" connect="1" arrows="1" fold="1" page="1" pageScale="1" pageWidth="827" pageHeight="1169" background="none" math="0" shadow="0">
      <root>
        <mxCell id="0" />
        <mxCell id="1" parent="0" />
        <mxCell id="m4Fp6ZyzXdIRrCxrwKAH-2282" value="" style="ellipse;shape=cloud;whiteSpace=wrap;html=1;fillColor=#FFFFFF;" vertex="1" parent="1">
          <mxGeometry x="180" y="596.5" width="170" height="137" as="geometry" />
        </mxCell>
        <mxCell id="m4Fp6ZyzXdIRrCxrwKAH-2281" value="" style="ellipse;shape=cloud;whiteSpace=wrap;html=1;fillColor=#FFFFFF;" vertex="1" parent="1">
          <mxGeometry x="115" y="452.5" width="170" height="137" as="geometry" />
        </mxCell>
        <mxCell id="m4Fp6ZyzXdIRrCxrwKAH-2280" value="" style="ellipse;shape=cloud;whiteSpace=wrap;html=1;fillColor=#FFFFFF;" vertex="1" parent="1">
          <mxGeometry x="180" y="320" width="170" height="137" as="geometry" />
        </mxCell>
        <mxCell id="m4Fp6ZyzXdIRrCxrwKAH-2279" value="" style="ellipse;shape=cloud;whiteSpace=wrap;html=1;fillColor=#FFFFFF;" vertex="1" parent="1">
          <mxGeometry x="542" y="300" width="170" height="137" as="geometry" />
        </mxCell>
        <mxCell id="m4Fp6ZyzXdIRrCxrwKAH-2278" value="" style="ellipse;shape=cloud;whiteSpace=wrap;html=1;fillColor=#FFFFFF;" vertex="1" parent="1">
          <mxGeometry x="580" y="438" width="170" height="137" as="geometry" />
        </mxCell>
        <mxCell id="m4Fp6ZyzXdIRrCxrwKAH-2257" value="" style="shape=mxgraph.cisco.routers.router;sketch=0;html=1;pointerEvents=1;dashed=0;fillColor=#17A9E8;strokeColor=#ffffff;strokeWidth=2;verticalLabelPosition=bottom;verticalAlign=top;align=center;outlineConnect=0;" vertex="1" parent="1">
          <mxGeometry x="400" y="480" width="78" height="53" as="geometry" />
        </mxCell>
        <mxCell id="m4Fp6ZyzXdIRrCxrwKAH-2258" value="2811" style="text;html=1;strokeColor=none;fillColor=none;align=center;verticalAlign=middle;whiteSpace=wrap;rounded=0;" vertex="1" parent="1">
          <mxGeometry x="406" y="506" width="60" height="30" as="geometry" />
        </mxCell>
        <mxCell id="m4Fp6ZyzXdIRrCxrwKAH-2260" style="rounded=0;orthogonalLoop=1;jettySize=auto;html=1;entryX=1;entryY=0.5;entryDx=0;entryDy=0;entryPerimeter=0;endArrow=none;endFill=0;exitX=0.435;exitY=0.942;exitDx=0;exitDy=0;exitPerimeter=0;" edge="1" parent="1" source="m4Fp6ZyzXdIRrCxrwKAH-2279">
          <mxGeometry relative="1" as="geometry">
            <mxPoint x="542.7" y="406.0000000000001" as="sourcePoint" />
            <mxPoint x="474" y="493.5" as="targetPoint" />
          </mxGeometry>
        </mxCell>
        <mxCell id="m4Fp6ZyzXdIRrCxrwKAH-2262" style="edgeStyle=none;rounded=0;orthogonalLoop=1;jettySize=auto;html=1;endArrow=none;endFill=0;exitX=0.108;exitY=0.554;exitDx=0;exitDy=0;exitPerimeter=0;" edge="1" parent="1" source="m4Fp6ZyzXdIRrCxrwKAH-2278">
          <mxGeometry relative="1" as="geometry">
            <mxPoint x="607.1999999999998" y="481.5" as="sourcePoint" />
            <mxPoint x="474" y="506" as="targetPoint" />
          </mxGeometry>
        </mxCell>
        <mxCell id="m4Fp6ZyzXdIRrCxrwKAH-2264" style="edgeStyle=none;rounded=0;orthogonalLoop=1;jettySize=auto;html=1;endArrow=none;endFill=0;exitX=0.07;exitY=0.4;exitDx=0;exitDy=0;exitPerimeter=0;" edge="1" parent="1" source="m4Fp6ZyzXdIRrCxrwKAH-2263">
          <mxGeometry relative="1" as="geometry">
            <mxPoint x="578.9200000000001" y="556.2" as="sourcePoint" />
            <mxPoint x="472.9999999999999" y="519.8749654982058" as="targetPoint" />
          </mxGeometry>
        </mxCell>
        <mxCell id="m4Fp6ZyzXdIRrCxrwKAH-2263" value="" style="ellipse;shape=cloud;whiteSpace=wrap;html=1;fillColor=#FFFFFF;" vertex="1" parent="1">
          <mxGeometry x="530" y="589.5" width="170" height="137" as="geometry" />
        </mxCell>
        <mxCell id="m4Fp6ZyzXdIRrCxrwKAH-2268" style="edgeStyle=none;rounded=0;orthogonalLoop=1;jettySize=auto;html=1;endArrow=none;endFill=0;exitX=0.55;exitY=0.95;exitDx=0;exitDy=0;exitPerimeter=0;" edge="1" parent="1" source="m4Fp6ZyzXdIRrCxrwKAH-2280">
          <mxGeometry relative="1" as="geometry">
            <mxPoint x="400.548" y="417.88" as="sourcePoint" />
            <mxPoint x="419.55772475295237" y="483" as="targetPoint" />
          </mxGeometry>
        </mxCell>
        <mxCell id="m4Fp6ZyzXdIRrCxrwKAH-2269" style="edgeStyle=none;rounded=0;orthogonalLoop=1;jettySize=auto;html=1;entryX=0;entryY=0.5;entryDx=0;entryDy=0;entryPerimeter=0;endArrow=none;endFill=0;exitX=0.924;exitY=0.561;exitDx=0;exitDy=0;exitPerimeter=0;" edge="1" parent="1" source="m4Fp6ZyzXdIRrCxrwKAH-2281" target="m4Fp6ZyzXdIRrCxrwKAH-2257">
          <mxGeometry relative="1" as="geometry">
            <mxPoint x="314.8000000000002" y="453.72" as="sourcePoint" />
          </mxGeometry>
        </mxCell>
        <mxCell id="m4Fp6ZyzXdIRrCxrwKAH-2270" style="edgeStyle=none;rounded=0;orthogonalLoop=1;jettySize=auto;html=1;endArrow=none;endFill=0;entryX=0;entryY=0.5;entryDx=0;entryDy=0;exitX=0.88;exitY=0.25;exitDx=0;exitDy=0;exitPerimeter=0;" edge="1" parent="1" source="m4Fp6ZyzXdIRrCxrwKAH-2282" target="m4Fp6ZyzXdIRrCxrwKAH-2258">
          <mxGeometry relative="1" as="geometry">
            <mxPoint x="310.8800000000001" y="556.2829999999999" as="sourcePoint" />
          </mxGeometry>
        </mxCell>
        <mxCell id="m4Fp6ZyzXdIRrCxrwKAH-2271" value="10.128.0.0/24" style="text;html=1;strokeColor=none;fillColor=none;align=center;verticalAlign=middle;whiteSpace=wrap;rounded=0;" vertex="1" parent="1">
          <mxGeometry x="240" y="408.5" width="74" height="30" as="geometry" />
        </mxCell>
        <mxCell id="m4Fp6ZyzXdIRrCxrwKAH-2272" value="&lt;font style=&quot;font-size: 10px&quot; color=&quot;#0000ff&quot;&gt;Серверная ферма&lt;/font&gt;" style="text;html=1;strokeColor=none;fillColor=none;align=center;verticalAlign=middle;whiteSpace=wrap;rounded=0;" vertex="1" parent="1">
          <mxGeometry x="205" y="362" width="120" height="30" as="geometry" />
        </mxCell>
        <mxCell id="m4Fp6ZyzXdIRrCxrwKAH-2273" value="&lt;font color=&quot;#0000ff&quot;&gt;&lt;span style=&quot;font-size: 10px&quot;&gt;Сеть управления&lt;/span&gt;&lt;/font&gt;" style="text;html=1;strokeColor=none;fillColor=none;align=center;verticalAlign=middle;whiteSpace=wrap;rounded=0;" vertex="1" parent="1">
          <mxGeometry x="137.5" y="490" width="125" height="30" as="geometry" />
        </mxCell>
        <mxCell id="m4Fp6ZyzXdIRrCxrwKAH-2274" value="&lt;font color=&quot;#0000ff&quot;&gt;&lt;span style=&quot;font-size: 10px&quot;&gt;Дисплейные классы ДК&lt;/span&gt;&lt;/font&gt;" style="text;html=1;strokeColor=none;fillColor=none;align=center;verticalAlign=middle;whiteSpace=wrap;rounded=0;" vertex="1" parent="1">
          <mxGeometry x="212" y="638.25" width="120" height="30" as="geometry" />
        </mxCell>
        <mxCell id="m4Fp6ZyzXdIRrCxrwKAH-2275" value="&lt;font color=&quot;#0000ff&quot;&gt;&lt;span style=&quot;font-size: 10px&quot;&gt;Кафедры (К)&lt;/span&gt;&lt;/font&gt;" style="text;html=1;strokeColor=none;fillColor=none;align=center;verticalAlign=middle;whiteSpace=wrap;rounded=0;" vertex="1" parent="1">
          <mxGeometry x="567" y="330" width="120" height="30" as="geometry" />
        </mxCell>
        <mxCell id="m4Fp6ZyzXdIRrCxrwKAH-2276" value="&lt;font color=&quot;#0000ff&quot;&gt;&lt;span style=&quot;font-size: 10px&quot;&gt;Администрация (А)&lt;/span&gt;&lt;/font&gt;" style="text;html=1;strokeColor=none;fillColor=none;align=center;verticalAlign=middle;whiteSpace=wrap;rounded=0;" vertex="1" parent="1">
          <mxGeometry x="605" y="470" width="120" height="30" as="geometry" />
        </mxCell>
        <mxCell id="m4Fp6ZyzXdIRrCxrwKAH-2277" value="&lt;font color=&quot;#0000ff&quot;&gt;&lt;span style=&quot;font-size: 10px&quot;&gt;Другие пользователи&lt;/span&gt;&lt;/font&gt;" style="text;html=1;strokeColor=none;fillColor=none;align=center;verticalAlign=middle;whiteSpace=wrap;rounded=0;" vertex="1" parent="1">
          <mxGeometry x="555" y="620" width="120" height="30" as="geometry" />
        </mxCell>
        <mxCell id="m4Fp6ZyzXdIRrCxrwKAH-2283" value="10.128.1.0/24" style="text;html=1;strokeColor=none;fillColor=none;align=center;verticalAlign=middle;whiteSpace=wrap;rounded=0;" vertex="1" parent="1">
          <mxGeometry x="171" y="536" width="74" height="30" as="geometry" />
        </mxCell>
        <mxCell id="m4Fp6ZyzXdIRrCxrwKAH-2284" value="10.128.3.0/24" style="text;html=1;strokeColor=none;fillColor=none;align=center;verticalAlign=middle;whiteSpace=wrap;rounded=0;" vertex="1" parent="1">
          <mxGeometry x="235" y="681.75" width="74" height="30" as="geometry" />
        </mxCell>
        <mxCell id="m4Fp6ZyzXdIRrCxrwKAH-2285" value="10.128.4&lt;span style=&quot;color: rgba(0 , 0 , 0 , 0) ; font-family: monospace ; font-size: 0px&quot;&gt;%3CmxGraphModel%3E%3Croot%3E%3CmxCell%20id%3D%220%22%2F%3E%3CmxCell%20id%3D%221%22%20parent%3D%220%22%2F%3E%3CmxCell%20id%3D%222%22%20value%3D%2210.128.0.0%2F24%22%20style%3D%22text%3Bhtml%3D1%3BstrokeColor%3Dnone%3BfillColor%3Dnone%3Balign%3Dcenter%3BverticalAlign%3Dmiddle%3BwhiteSpace%3Dwrap%3Brounded%3D0%3B%22%20vertex%3D%221%22%20parent%3D%221%22%3E%3CmxGeometry%20x%3D%22346%22%20y%3D%22370%22%20width%3D%2274%22%20height%3D%2230%22%20as%3D%22geometry%22%2F%3E%3C%2FmxCell%3E%3C%2Froot%3E%3C%2FmxGraphModel%3E&lt;/span&gt;.0/24" style="text;html=1;strokeColor=none;fillColor=none;align=center;verticalAlign=middle;whiteSpace=wrap;rounded=0;" vertex="1" parent="1">
          <mxGeometry x="571" y="380" width="116" height="30" as="geometry" />
        </mxCell>
        <mxCell id="m4Fp6ZyzXdIRrCxrwKAH-2286" value="10.128.5.0/24" style="text;html=1;strokeColor=none;fillColor=none;align=center;verticalAlign=middle;whiteSpace=wrap;rounded=0;" vertex="1" parent="1">
          <mxGeometry x="639" y="520" width="74" height="30" as="geometry" />
        </mxCell>
        <mxCell id="m4Fp6ZyzXdIRrCxrwKAH-2287" value="10.128.6.0/24" style="text;html=1;strokeColor=none;fillColor=none;align=center;verticalAlign=middle;whiteSpace=wrap;rounded=0;" vertex="1" parent="1">
          <mxGeometry x="590" y="670" width="74" height="30" as="geometry" />
        </mxCell>
        <mxCell id="m4Fp6ZyzXdIRrCxrwKAH-2289" value="&lt;font style=&quot;font-size: 10px&quot; color=&quot;#0000ff&quot;&gt;msk-donskaya-vmshutenko-gw-1&lt;/font&gt;" style="text;html=1;strokeColor=none;fillColor=none;align=center;verticalAlign=middle;whiteSpace=wrap;rounded=0;" vertex="1" parent="1">
          <mxGeometry x="370" y="437" width="160" height="30" as="geometry" />
        </mxCell>
      </root>
    </mxGraphModel>
  </diagram>
</mxfile>
